<?xml version="1.0" encoding="UTF-8" standalone="no"?>
<!DOCTYPE svg PUBLIC "-//W3C//DTD SVG 1.1//EN" "http://www.w3.org/Graphics/SVG/1.1/DTD/svg11.dtd">
<svg version="1.1" xmlns="http://www.w3.org/2000/svg" xmlns:xlink="http://www.w3.org/1999/xlink" preserveAspectRatio="xMidYMid meet" viewBox="0 0 640 640" width="640" height="640"><defs><path d="M328.4 271.95C323.08 273.64 317.09 273.71 311.51 271.92C310.79 272.45 307.17 275.05 300.64 279.75L300.64 604.82L339.36 604.82L339.36 279.85C333.51 275.64 329.86 273 328.4 271.95Z" id="aoc3ROca"></path><path d="M326.4 272.47C322.06 273.6 316.63 273.55 311.51 271.92C310.79 272.45 307.17 275.05 300.64 279.75L300.64 604.82L326.4 604.82C326.4 427.57 326.4 316.78 326.4 272.47Z" id="bCkuW67G1"></path><path d="M300.64 468.4L339.36 468.4L339.36 604.82L300.64 604.82L300.64 468.4Z" id="a1trrRf9r4"></path><path d="M300.64 468.4L326.4 468.4L326.4 604.82L300.64 604.82L300.64 468.4Z" id="b1ZqjDqzz2"></path><path d="M167.24 601.28C156.88 601.28 148.41 609.76 148.41 620.12C148.41 620.23 148.41 621.06 148.41 621.17C148.41 631.52 156.88 640 167.24 640C197.79 640 442.21 640 472.76 640C483.12 640 491.59 631.52 491.59 621.17C491.59 621.06 491.59 620.23 491.59 620.12C491.59 609.76 483.12 601.28 472.76 601.28C411.65 601.28 197.79 601.28 167.24 601.28Z" id="b17YwX8bpf"></path><path d="M167.24 614.24C161.6 614.24 156.54 611.72 153.08 607.76C150.18 611.08 148.41 615.4 148.41 620.12C148.41 620.23 148.41 621.06 148.41 621.17C148.41 631.52 156.88 640 167.24 640C197.79 640 442.21 640 472.76 640C483.11 640 491.59 631.52 491.59 621.17C491.59 621.06 491.59 620.23 491.59 620.12C491.59 615.4 489.82 611.08 486.92 607.76C483.46 611.72 478.4 614.24 472.76 614.24C411.65 614.24 197.79 614.24 167.24 614.24Z" id="ccEaLagSR"></path><path d="M319.7 281.18C302.77 281.18 289.04 267.45 289.04 250.51C289.04 233.58 302.77 219.85 319.7 219.85C336.64 219.85 350.37 233.58 350.37 250.51C350.37 267.45 336.64 281.18 319.7 281.18Z" id="cbUDfFEmO"></path></defs><g><g><g><use xlink:href="#aoc3ROca" opacity="1" fill="#e0e0de" fill-opacity="1"></use><g><use xlink:href="#aoc3ROca" opacity="1" fill-opacity="0" stroke="#000000" stroke-width="1" stroke-opacity="0"></use></g></g><g><use xlink:href="#bCkuW67G1" opacity="1" fill="#d3d3cf" fill-opacity="1"></use><g><use xlink:href="#bCkuW67G1" opacity="1" fill-opacity="0" stroke="#000000" stroke-width="1" stroke-opacity="0"></use></g></g><g><use xlink:href="#a1trrRf9r4" opacity="1" fill="#d3d3cf" fill-opacity="1"></use><g><use xlink:href="#a1trrRf9r4" opacity="1" fill-opacity="0" stroke="#000000" stroke-width="1" stroke-opacity="0"></use></g></g><g><use xlink:href="#b1ZqjDqzz2" opacity="1" fill="#c6c6c4" fill-opacity="1"></use><g><use xlink:href="#b1ZqjDqzz2" opacity="1" fill-opacity="0" stroke="#000000" stroke-width="1" stroke-opacity="0"></use></g></g><g><use xlink:href="#b17YwX8bpf" opacity="1" fill="#49ae3a" fill-opacity="1"></use><g><use xlink:href="#b17YwX8bpf" opacity="1" fill-opacity="0" stroke="#000000" stroke-width="1" stroke-opacity="0"></use></g></g><g><use xlink:href="#ccEaLagSR" opacity="1" fill="#1d9942" fill-opacity="1"></use><g><use xlink:href="#ccEaLagSR" opacity="1" fill-opacity="0" stroke="#000000" stroke-width="1" stroke-opacity="0"></use></g></g><g><use xlink:href="#cbUDfFEmO" opacity="1" fill="#3b7c93" fill-opacity="1"></use><g><use xlink:href="#cbUDfFEmO" opacity="1" fill-opacity="0" stroke="#000000" stroke-width="1" stroke-opacity="0"></use></g></g></g></g></svg>