<?xml version="1.0" encoding="UTF-8" standalone="no"?>
<!DOCTYPE svg PUBLIC "-//W3C//DTD SVG 1.1//EN" "http://www.w3.org/Graphics/SVG/1.1/DTD/svg11.dtd">
<svg version="1.1" xmlns="http://www.w3.org/2000/svg" xmlns:xlink="http://www.w3.org/1999/xlink" preserveAspectRatio="xMidYMid meet" viewBox="0 0 640 640" width="640" height="640"><defs><path d="M327.71 3.16C327.4 1.34 325.82 0 323.96 0C323.23 0 317.43 0 316.71 0C314.8 0 313.17 1.38 312.85 3.26C311.39 11.77 304.12 54.33 291.03 130.95L349.54 130.95C337.9 62.8 330.62 20.2 327.71 3.16Z" id="b3J5iN2l0r"></path><path d="M103.87 365.05C102.45 366.24 102.08 368.28 103.01 369.88C103.37 370.51 106.27 375.53 106.64 376.16C107.59 377.82 109.6 378.54 111.39 377.88C119.49 374.88 159.99 359.9 232.88 332.92L203.62 282.26C150.42 326.41 117.17 354.01 103.87 365.05Z" id="g4SX0PDaL"></path><path d="M529.22 378.13C530.96 378.77 532.91 378.07 533.84 376.46C534.2 375.83 537.1 370.81 537.46 370.18C538.42 368.53 538.04 366.43 536.57 365.21C529.93 359.69 496.7 332.11 436.89 282.47L407.64 333.14C472.49 357.13 513.01 372.13 529.22 378.13Z" id="azXYBtaEl"></path><path d="M349.54 130.95L291.03 130.95C296.25 190.83 299.14 224.09 299.72 230.75C310.96 219.08 329.53 219.09 340.76 230.74C341.93 217.44 344.86 184.17 349.54 130.95Z" id="aTuiwbxvq"></path><path d="M327.71 3.16C327.4 1.34 325.82 0 323.96 0C323.23 0 317.43 0 316.71 0C314.8 0 313.17 1.38 312.85 3.26C311.39 11.77 304.12 54.33 291.03 130.95L316.79 130.95L333.16 35.09C330.26 18.06 328.44 7.42 327.71 3.16Z" id="bfB1dFLKS"></path><path d="M316.79 130.95L291.03 130.95C296.25 190.83 299.14 224.1 299.72 230.75C306.23 223.99 315.52 220.89 324.75 222.36C323.68 210.17 321.03 179.7 316.79 130.95Z" id="a8rEOoGdoo"></path><path d="M203.62 282.26L232.88 332.92C280.21 299.81 306.5 281.42 311.76 277.74C296.25 272.91 287.68 255.92 293.63 240.34C281.63 245.93 251.63 259.9 203.62 282.26Z" id="h55bKgl4Bz"></path><path d="M214.61 300.81C262.75 278.39 289.49 265.94 294.84 263.45C291.28 256.46 290.64 248.15 293.63 240.34C287.63 243.14 257.63 257.11 203.62 282.26L214.42 300.96L214.61 300.81Z" id="b1kJYXLkS2"></path><path d="M214.42 300.96L203.62 282.26C143.77 331.93 110.52 359.53 103.87 365.05C102.45 366.24 102.08 368.28 103.01 369.88C103.37 370.51 106.27 375.53 106.64 376.16C107.59 377.82 109.6 378.54 111.39 377.88C112.64 377.42 118.88 375.11 130.1 370.96L214.42 300.96Z" id="bASlnfGXB"></path><path d="M346.89 240.45C352.8 256.09 344.11 273 328.65 277.76C333.91 281.46 360.25 299.91 407.64 333.14L436.9 282.47C388.9 260.06 358.9 246.06 346.89 240.45Z" id="aFKM4ZwN"></path><path d="M519.56 351.08L418.8 313.8L407.64 333.14C480.59 360.13 521.12 375.13 529.22 378.13C530.96 378.77 532.91 378.06 533.84 376.46C534.2 375.83 537.1 370.81 537.46 370.18C538.42 368.53 538.04 366.43 536.57 365.21C534.3 363.32 528.63 358.62 519.56 351.08Z" id="acw1amJP9"></path><path d="M418.6 313.73C375.01 283.17 350.8 266.2 345.95 262.8C342.54 269.92 336.29 275.41 328.65 277.76C333.91 281.46 360.25 299.91 407.64 333.14L418.8 313.8L418.6 313.73Z" id="c2V1cXzhe"></path><path d="M319.95 281.18C303.01 281.18 289.28 267.45 289.28 250.51C289.28 233.58 303.01 219.85 319.95 219.85C336.88 219.85 350.62 233.58 350.62 250.51C350.62 267.45 336.88 281.18 319.95 281.18Z" id="g2W1OmLWc8"></path><path d="M289.28 250.51C289.28 272.91 312.56 287.74 332.83 278.34C309.13 267.36 309.17 233.65 332.83 222.69C312.54 213.28 289.28 228.14 289.28 250.51Z" id="a389DKNKUt"></path></defs><g><g><g><use xlink:href="#b3J5iN2l0r" opacity="1" fill="#b3dbf4" fill-opacity="1"></use><g><use xlink:href="#b3J5iN2l0r" opacity="1" fill-opacity="0" stroke="#000000" stroke-width="1" stroke-opacity="0"></use></g></g><g><use xlink:href="#g4SX0PDaL" opacity="1" fill="#b3dbf4" fill-opacity="1"></use><g><use xlink:href="#g4SX0PDaL" opacity="1" fill-opacity="0" stroke="#000000" stroke-width="1" stroke-opacity="0"></use></g></g><g><use xlink:href="#azXYBtaEl" opacity="1" fill="#b3dbf4" fill-opacity="1"></use><g><use xlink:href="#azXYBtaEl" opacity="1" fill-opacity="0" stroke="#000000" stroke-width="1" stroke-opacity="0"></use></g></g><g><use xlink:href="#aTuiwbxvq" opacity="1" fill="#8fc8e2" fill-opacity="1"></use><g><use xlink:href="#aTuiwbxvq" opacity="1" fill-opacity="0" stroke="#000000" stroke-width="1" stroke-opacity="0"></use></g></g><g><use xlink:href="#bfB1dFLKS" opacity="1" fill="#8fc8e2" fill-opacity="1"></use><g><use xlink:href="#bfB1dFLKS" opacity="1" fill-opacity="0" stroke="#000000" stroke-width="1" stroke-opacity="0"></use></g></g><g><use xlink:href="#a8rEOoGdoo" opacity="1" fill="#6fbdd8" fill-opacity="1"></use><g><use xlink:href="#a8rEOoGdoo" opacity="1" fill-opacity="0" stroke="#000000" stroke-width="1" stroke-opacity="0"></use></g></g><g><use xlink:href="#h55bKgl4Bz" opacity="1" fill="#8fc8e2" fill-opacity="1"></use><g><use xlink:href="#h55bKgl4Bz" opacity="1" fill-opacity="0" stroke="#000000" stroke-width="1" stroke-opacity="0"></use></g></g><g><use xlink:href="#b1kJYXLkS2" opacity="1" fill="#6fbdd8" fill-opacity="1"></use><g><use xlink:href="#b1kJYXLkS2" opacity="1" fill-opacity="0" stroke="#000000" stroke-width="1" stroke-opacity="0"></use></g></g><g><use xlink:href="#bASlnfGXB" opacity="1" fill="#8fc8e2" fill-opacity="1"></use><g><use xlink:href="#bASlnfGXB" opacity="1" fill-opacity="0" stroke="#000000" stroke-width="1" stroke-opacity="0"></use></g></g><g><use xlink:href="#aFKM4ZwN" opacity="1" fill="#8fc8e2" fill-opacity="1"></use><g><use xlink:href="#aFKM4ZwN" opacity="1" fill-opacity="0" stroke="#000000" stroke-width="1" stroke-opacity="0"></use></g></g><g><use xlink:href="#acw1amJP9" opacity="1" fill="#8fc8e2" fill-opacity="1"></use><g><use xlink:href="#acw1amJP9" opacity="1" fill-opacity="0" stroke="#000000" stroke-width="1" stroke-opacity="0"></use></g></g><g><use xlink:href="#c2V1cXzhe" opacity="1" fill="#6fbdd8" fill-opacity="1"></use><g><use xlink:href="#c2V1cXzhe" opacity="1" fill-opacity="0" stroke="#000000" stroke-width="1" stroke-opacity="0"></use></g></g><g><use xlink:href="#g2W1OmLWc8" opacity="1" fill="#3b7c93" fill-opacity="1"></use><g><use xlink:href="#g2W1OmLWc8" opacity="1" fill-opacity="0" stroke="#000000" stroke-width="1" stroke-opacity="0"></use></g></g><g><use xlink:href="#a389DKNKUt" opacity="1" fill="#2f6780" fill-opacity="1"></use><g><use xlink:href="#a389DKNKUt" opacity="1" fill-opacity="0" stroke="#000000" stroke-width="1" stroke-opacity="0"></use></g></g></g></g></svg>